<svg viewBox="0 0 24 24" fill="none" xmlns="http://www.w3.org/2000/svg"><path fill-rule="evenodd" clip-rule="evenodd" d="M18.982 12.5a6.956 6.956 0 01-.918 3h-2.466c.223-.916.361-1.93.394-3h2.99zm-3.99 0a13.443 13.443 0 01-.426 3H12.5v-3h2.492zm1-1h2.99a6.957 6.957 0 00-.918-3h-2.466c.223.916.361 1.93.394 3zm-1.426-3c.237.89.39 1.906.426 3H12.5v-3h2.066zm.742-1h2.054a7.01 7.01 0 00-3.127-2.136c.422.57.786 1.295 1.073 2.136zM12.5 5.123c.444.21.957.713 1.434 1.667.11.22.214.458.31.71H12.5V5.123zM12 4a8 8 0 110 16 8 8 0 010-16zm2.235 14.636a7.01 7.01 0 003.127-2.136h-2.054c-.287.84-.651 1.566-1.073 2.136zm.01-2.136c-.097.252-.2.49-.311.71-.477.954-.99 1.456-1.434 1.667V16.5h1.745zM11.5 18.877c-.444-.21-.957-.713-1.434-1.667a7.906 7.906 0 01-.31-.71H11.5v2.377zM8.692 16.5c.287.84.651 1.566 1.073 2.136A7.01 7.01 0 016.638 16.5h2.054zm-.29-1H5.936a6.957 6.957 0 01-.918-3h2.99a14.65 14.65 0 00.394 3zm1.032 0a13.46 13.46 0 01-.426-3H11.5v3H9.434zm-.426-4H11.5v-3H9.434a13.46 13.46 0 00-.426 3zm-.316-4H6.638a7.01 7.01 0 013.127-2.136c-.422.57-.786 1.295-1.073 2.136zm1.063 0c.097-.252.2-.49.311-.71.477-.954.99-1.456 1.434-1.667V7.5H9.755zm-1.353 1c-.223.916-.361 1.93-.394 3h-2.99a6.958 6.958 0 01.918-3h2.466z" fill="#0074E0"/></svg>